<svg width="72" height="72" viewBox="0 0 72 72" fill="none" xmlns="http://www.w3.org/2000/svg">
  <defs>
    <linearGradient id="flowcrmGradient" x1="16" y1="12" x2="58" y2="58" gradientUnits="userSpaceOnUse">
      <stop offset="0" stop-color="#312E81"/>
      <stop offset="1" stop-color="#0F172A"/>
    </linearGradient>
    <linearGradient id="flowcrmRibbon" x1="20" y1="20" x2="56" y2="52" gradientUnits="userSpaceOnUse">
      <stop offset="0" stop-color="#60A5FA"/>
      <stop offset="0.5" stop-color="#38BDF8"/>
      <stop offset="1" stop-color="#14B8A6"/>
    </linearGradient>
  </defs>
  <rect x="6" y="6" width="60" height="60" rx="18" fill="url(#flowcrmGradient)"/>
  <path d="M22 30C22 24.477 26.477 20 32 20H40C44.4183 20 48 23.5817 48 28V32C48 37.5228 43.5228 42 38 42H36C30.4772 42 26 46.4772 26 52V52" stroke="url(#flowcrmRibbon)" stroke-width="8" stroke-linecap="round" stroke-linejoin="round"/>
  <path d="M28 52C28 46.4772 32.4772 42 38 42H40C45.5228 42 50 37.5228 50 32V24" stroke="#C7D2FE" stroke-width="4" stroke-linecap="round" stroke-linejoin="round" opacity="0.6"/>
  <circle cx="48" cy="24" r="4" fill="#F1F5F9"/>
  <circle cx="26" cy="52" r="5" fill="#22D3EE"/>
</svg>
